<svg width="24" height="24" viewBox="0 0 24 24" fill="none" xmlns="http://www.w3.org/2000/svg">
<path d="M12.0098 1.90039C17.6197 1.9004 22.1074 6.27581 22.1074 11.5869C22.1073 16.8967 17.6091 21.2734 11.998 21.2734C11.0657 21.2734 10.18 21.1544 9.32715 20.9277C9.19958 20.8938 9.06641 20.8881 8.9375 20.9111L8.81055 20.9443L5.64551 22.002L5.81055 19.748C5.83192 19.4541 5.70765 19.1678 5.47852 18.9824C3.2792 17.2034 1.90044 14.5525 1.90039 11.5869C1.90039 6.27642 6.38749 1.90039 12.0098 1.90039Z" stroke="black" stroke-width="1.8" stroke-linejoin="round"/>
<path d="M10.1498 8.79526C10.2222 8.80569 10.2825 8.81612 10.3548 8.82655C11.428 9.05597 12.5252 10.0362 13.3693 10.6202C13.8396 10.9539 14.2375 10.9227 14.7078 10.6098C15.7086 9.92153 16.7456 9.26454 17.7705 8.5867C18.0478 8.39899 18.3372 8.20085 18.6748 8.45113C19.0486 8.72227 18.8195 9.01426 18.6266 9.2854C17.6137 10.6828 16.6129 12.0802 15.588 13.4672C14.8886 14.4266 13.8999 14.5621 12.8388 13.8843C12.1032 13.4046 11.3436 12.9562 10.6201 12.4556C10.1378 12.1219 9.73984 12.1636 9.28163 12.4765C8.26876 13.1647 7.24382 13.8217 6.21889 14.4996C5.94156 14.6873 5.65216 14.8854 5.31454 14.6247C4.97691 14.3744 5.15778 14.0929 5.33865 13.8322C6.3877 12.393 7.42469 10.9539 8.47374 9.51482C8.82343 9.02469 9.47456 8.73269 10.1498 8.79526Z" fill="black"/>
</svg>
